<svg xmlns="http://www.w3.org/2000/svg" width="51.396" height="50.17" viewBox="0 0 51.396 50.17">
  <g id="Group_15" data-name="Group 15" transform="translate(-140 -2992.83)">
    <g id="mail_outline-24px" transform="translate(140 2992.83)">
      <path id="Path_1" data-name="Path 1" d="M0,0H51.4V50.17H0Z" fill="none"/>
      <path id="Path_2" data-name="Path 2" d="M44.657,4H6.74A5.023,5.023,0,0,0,2.024,9.271L2,40.9A5.042,5.042,0,0,0,6.74,46.17H44.657A5.042,5.042,0,0,0,49.4,40.9V9.271A5.042,5.042,0,0,0,44.657,4Zm0,36.9H6.74V14.543L25.7,27.721,44.657,14.543ZM25.7,22.449,6.74,9.271H44.657Z" transform="translate(0 0)"/>
    </g>
  </g>
</svg>
