<svg xmlns="http://www.w3.org/2000/svg" width="41.25" height="48.34" viewBox="0 0 41.25 48.34">
  <g id="Group_14" data-name="Group 14" transform="translate(-140 -2919.83)">
    <g id="phone_iphone-24px" transform="translate(140 2919.83)">
      <path id="Path_5" data-name="Path 5" d="M0,0H41.25V48.34H0Z" fill="none"/>
      <path id="Path_6" data-name="Path 6" d="M29.433,1H10.817A5.564,5.564,0,0,0,5,6.266V42.074a5.564,5.564,0,0,0,5.817,5.266H29.433a5.564,5.564,0,0,0,5.817-5.266V6.266A5.564,5.564,0,0,0,29.433,1ZM20.125,45.234a3.175,3.175,0,1,1,0-6.319,3.175,3.175,0,1,1,0,6.319ZM30.6,36.808H9.654V7.319H30.6Z" transform="translate(0)"/>
    </g>
  </g>
</svg>
